# xmcd CD database file
# 
# Track frame offsets:
# 	150
# 	11464
# 	21812
# 	30579
# 	41333
# 	50821
# 	64865
# 	76537
# 	91339
# 	103459
# 	117471
# 	127282
# 	140409
# 	152454
# 	162684
# 	176609
# 	187925
# 	198629
# 	212952
# 	227687
# 	239273
# 
# Disc length: 3346 seconds
# 
# Submitted via: Nero 6, 6, 0, 1
# 
# Revision: 0
# Processed by: cddbd v1.5.1PL0 Copyright (c) Steve Scherf et al.
#
DISCID=240d1015
DTITLE=Tennessee Ernie Ford - I'd like to teach the world to sing
DYEAR=1900
DGENRE=
TTITLE0=Blackberry Boggie
TTITLE1=False Hearted Girl
TTITLE2=Hambone
TTITLE3=Hey Mr. Cotton Picker
TTITLE4=Kissin' Bug Boggie
TTITLE5=Mule Train
TTITLE6=Hog Tied Over You
TTITLE7=My Grandfathers Clock
TTITLE8=Smokey Moutain Boogie
TTITLE9=Tennessee Stud
TTITLE10=Anticipation Blues
TTITLE11=The Ballad of Davy Crockett
TTITLE12=Sixteen Tons
TTITLE13=You Don't have to be a baby to cry
TTITLE14=Trouble in mind
TTITLE15=The battle Hymn of the Republic
TTITLE16=Dixie
TTITLE17=Stonewall Jackson's Way
TTITLE18=Maryland my Maryland
TTITLE19=River of no return
TTITLE20=Take me home Country roads
EXTD=
EXTT0=
EXTT1=
EXTT2=
EXTT3=
EXTT4=
EXTT5=
EXTT6=
EXTT7=
EXTT8=
EXTT9=
EXTT10=
EXTT11=
EXTT12=
EXTT13=
EXTT14=
EXTT15=
EXTT16=
EXTT17=
EXTT18=
EXTT19=
EXTT20=
PLAYORDER=
